<?xml version="1.0" standalone="no"?>
<!DOCTYPE svg PUBLIC "-//W3C//DTD SVG 20010904//EN"
 "http://www.w3.org/TR/2001/REC-SVG-20010904/DTD/svg10.dtd">
<svg version="1.0" xmlns="http://www.w3.org/2000/svg"
 width="983.000000pt" height="983.000000pt" viewBox="0 0 983.000000 983.000000"
 preserveAspectRatio="xMidYMid meet">
<metadata>
Created by potrace 1.11, written by Peter Selinger 2001-2013
</metadata>
<g transform="translate(0.000000,983.000000) scale(0.100000,-0.100000)"
fill="#000000" stroke="none">
<path d="M5238 9794 c-2 -1 -39 -5 -83 -8 -124 -9 -218 -20 -355 -42 -142 -23
-148 -24 -245 -46 -49 -10 -100 -21 -113 -24 -12 -2 -93 -25 -180 -49 -307
-89 -573 -200 -932 -391 -19 -11 -37 -21 -40 -24 -8 -8 -111 -70 -116 -70 -16
0 -447 -308 -474 -339 -3 -4 -34 -31 -70 -61 -132 -112 -335 -309 -445 -435
-33 -37 -65 -73 -71 -79 -36 -38 -207 -258 -281 -362 -98 -138 -251 -379 -315
-494 -23 -41 -50 -91 -61 -110 -157 -279 -338 -720 -455 -1110 -94 -310 -186
-737 -227 -1050 -3 -25 -8 -63 -11 -85 -3 -22 -7 -51 -9 -65 -2 -14 -6 -59
-10 -100 -4 -41 -8 -86 -10 -100 -3 -22 -11 -124 -20 -255 -22 -308 -21 -811
0 -1035 2 -19 7 -71 10 -115 4 -44 9 -88 11 -99 2 -10 6 -44 9 -75 3 -31 10
-76 15 -101 8 -40 12 -63 26 -150 32 -191 154 -616 224 -775 10 -22 30 -69 45
-105 185 -436 529 -912 880 -1217 104 -90 122 -104 205 -167 159 -119 289
-198 495 -300 308 -153 617 -256 950 -316 28 -5 61 -11 75 -14 111 -21 236
-26 691 -26 281 0 540 4 577 10 37 5 85 12 107 15 84 11 110 16 125 20 8 3 33
7 55 11 22 3 67 12 100 20 33 8 71 17 85 20 101 21 474 139 567 180 18 7 48
20 66 28 349 148 689 346 996 579 58 44 111 85 117 91 6 6 33 29 59 51 116 95
342 314 450 435 117 131 302 364 390 494 219 319 445 737 589 1091 32 77 64
154 71 170 40 89 185 551 230 735 12 46 86 395 91 426 3 20 8 46 10 58 7 33
43 266 49 316 2 25 7 68 11 95 3 28 7 61 9 75 2 14 7 61 11 105 4 44 8 94 10
110 20 221 27 1012 11 1180 -13 131 -25 233 -32 285 -13 92 -38 235 -50 292
-8 36 -18 83 -21 105 -3 21 -8 41 -11 46 -2 4 -6 19 -9 33 -10 55 -56 211
-102 349 -27 80 -42 121 -71 190 -5 11 -21 49 -36 85 -102 242 -331 628 -480
809 -108 130 -156 184 -269 296 -154 154 -183 180 -296 265 -47 36 -87 67 -90
70 -3 3 -50 35 -105 71 -170 111 -377 222 -550 294 -49 20 -103 43 -120 50
-65 27 -318 108 -372 120 -10 2 -56 13 -103 24 -94 22 -105 24 -230 46 -97 17
-137 22 -235 30 -38 3 -81 9 -95 12 -26 5 -617 13 -622 7z m422 -1369 c82 -10
275 -54 355 -80 381 -125 714 -388 986 -780 221 -319 379 -814 434 -1370 27
-267 27 -954 0 -1170 -2 -16 -6 -65 -10 -109 -3 -44 -7 -89 -10 -100 -2 -12
-7 -48 -10 -81 -5 -54 -11 -91 -30 -215 -3 -19 -7 -48 -9 -65 -3 -16 -21 -109
-41 -205 -20 -96 -39 -186 -42 -200 -3 -14 -19 -74 -35 -135 -127 -479 -311
-912 -533 -1260 -45 -70 -185 -268 -194 -275 -4 -3 -14 -15 -23 -28 -8 -12
-44 -55 -79 -95 -328 -370 -706 -637 -1109 -782 -134 -48 -342 -101 -445 -112
-27 -3 -53 -7 -56 -9 -27 -16 -444 -24 -581 -11 -270 26 -557 122 -775 259
-159 100 -350 268 -475 418 -171 207 -323 499 -412 795 -20 66 -41 134 -46
150 -5 17 -11 41 -14 55 -2 14 -9 45 -15 70 -10 47 -12 56 -30 155 -18 102
-27 166 -36 250 -4 33 -8 76 -10 95 -27 239 -27 788 0 1150 6 89 17 196 20
210 2 8 6 40 10 70 7 72 17 140 30 223 3 15 7 42 10 60 17 103 60 308 86 412
16 66 32 127 34 135 22 92 122 393 175 530 68 173 185 422 259 550 18 30 35
63 38 73 3 9 9 17 14 17 5 0 9 5 9 12 0 10 139 226 164 255 6 6 22 28 36 48
14 20 34 47 45 60 11 12 34 40 50 61 214 270 571 563 872 717 152 78 397 170
513 193 14 3 45 10 70 15 65 15 80 18 125 24 22 3 47 8 55 10 8 2 51 7 95 11
44 3 82 7 83 9 6 6 395 -3 452 -10z"/>
</g>
</svg>
